<?xml version="1.0" standalone="no"?>
<!DOCTYPE svg PUBLIC "-//W3C//DTD SVG 1.1//EN" "http://www.w3.org/Graphics/SVG/1.1/DTD/svg11.dtd">
<svg xmlns="http://www.w3.org/2000/svg" width="171" height="80" viewBox="0 0 171 80" fill="none">
<path d="M22.0379 37.9998L10.9679 39.4298L8.89788 57.8598L0.0378837 58.9998C0.0778837 43.1598 -0.532117 26.8898 1.97788 11.4398L11.0379 10.0098L10.0479 31.0098L21.6179 29.0698C23.2379 24.5398 20.3079 13.1598 23.5279 9.97977L33.0579 9.00977L31.0979 53.3398L22.0579 55.0098V38.0098L22.0379 37.9998Z" fill="#00DD72"/>
<path d="M152.798 16.2205C177.248 12.6305 177.768 58.3805 149.598 53.9405C132.458 51.2405 134.268 18.9505 152.798 16.2205ZM158.758 44.7105C163.088 41.1905 163.918 28.2905 158.428 25.1205C149.508 19.9705 141.878 36.0005 148.028 43.5105C150.488 46.5105 155.668 47.2305 158.758 44.7105Z" fill="#00DD72"/>
<path d="M134.038 30.9998L132.548 48.0098C116.258 58.4098 98.3678 48.5898 103.988 28.4498C107.788 14.8198 124.868 9.80982 134.818 20.4898C135.018 21.7898 130.268 25.7298 129.388 25.8998C127.898 26.1798 124.108 20.7898 117.288 23.7598C113.148 25.5598 110.448 33.0498 111.078 37.4298C112.328 46.1498 127.288 48.9698 126.048 38.0098H119.038V31.0098H134.038V30.9998Z" fill="#00DD72"/>
<path d="M60.6883 48.65C53.8583 55.05 42.0583 54.95 37.4783 46.06C30.9883 33.48 40.1283 14.61 55.0783 17.42C68.6983 19.98 69.5883 40.33 60.6983 48.65H60.6883ZM55.6883 42.65C61.7183 36.64 57.4383 17.96 46.9983 27.46C39.1783 34.57 46.1183 52.18 55.6883 42.65Z" fill="#00DD72"/>
<path d="M81.7683 17.2298C107.248 11.9398 104.858 51.7798 83.5383 51.8098C64.8783 51.8398 66.4183 20.4098 81.7683 17.2298ZM84.7783 24.1498C74.8283 25.9598 75.4683 48.0798 86.7683 43.2498C94.7483 39.8398 94.2583 22.4198 84.7783 24.1498Z" fill="#00DD72"/>
<path d="M123.028 66.9893L118.518 65.2293C103.938 80.4493 79.9879 84.7593 61.3679 74.1593C59.3679 73.0193 53.8879 68.2293 53.3279 68.0893C51.4279 67.5993 47.9079 71.9393 47.0379 68.4493C46.0079 64.2993 54.0179 58.4793 58.0179 58.9993C55.5179 66.0193 60.4379 67.9493 66.3279 70.1893C76.8979 74.1993 91.1379 74.1893 101.708 70.1893C105.318 68.8193 117.588 63.2993 112.138 59.3393L113.608 57.0293C118.978 57.3393 124.108 61.1993 123.018 66.9893H123.028Z" fill="#00DD72"/>
<path d="M126.038 9.98L131.058 1L135.938 4.49L130.038 11.57L126.038 9.98Z" fill="#00DD72"/>
<path d="M119.028 0L120.108 9.33L116.058 11L113.968 1.6L119.028 0Z" fill="#00DD72"/>
</svg>